<?xml version="1.0" encoding="utf-8"?>
<!-- Generator: Adobe Illustrator 27.1.0, SVG Export Plug-In . SVG Version: 6.00 Build 0)  -->
<svg version="1.1" id="Capa_1" xmlns="http://www.w3.org/2000/svg" xmlns:xlink="http://www.w3.org/1999/xlink" x="0px" y="0px"
	 viewBox="0 0 1366 768" style="enable-background:new 0 0 1366 768;" xml:space="preserve">
<style type="text/css">
	.st0{fill:#FAD900;}
	.st1{fill:#2B2F73;}
	.st2{fill:#5E2129;}
</style>
<g>
	<rect x="320" y="231" class="st0" width="462" height="175"/>
	<g>
		<path class="st1" d="M496.58,301.5h-17.56v-32.45h18.08l-0.52,8h-8.62v4.86h7.47v6.9h-7.47v5.38h9.15L496.58,301.5z"/>
		<path class="st1" d="M519.42,301.5h-16.51v-32.45h8.94v25.19h8.1L519.42,301.5z"/>
		<path class="st1" d="M542.16,301.5H524.6v-32.45h18.08l-0.52,8h-8.62v4.86h7.47v6.9h-7.47v5.38h9.15L542.16,301.5z"/>
		<path class="st1" d="M556.11,285.58c0,3.08,0.3,5.28,0.92,6.58c0.61,1.31,1.61,1.96,3,1.96c1.39,0,3.36-0.33,5.91-0.99l1.36,7.37
			c-2.75,1.01-5.52,1.52-8.31,1.52c-4.18,0-7.22-1.38-9.12-4.15c-1.9-2.77-2.85-6.9-2.85-12.39c0-5.49,0.99-9.68,2.98-12.59
			c1.99-2.91,5.23-4.36,9.72-4.36c2.65,0,5.17,0.56,7.58,1.67l-1.41,8.1c-2.72-0.91-4.62-1.36-5.7-1.36c-1.53,0-2.6,0.67-3.19,2.01
			C556.41,280.29,556.11,282.5,556.11,285.58z"/>
		<path class="st1" d="M590.71,276.94h-6.06v24.56h-8.94v-24.56h-6.43l0.52-7.89h21.43L590.71,276.94z"/>
		<path class="st1" d="M617.83,279.34c0,1.95-0.3,3.57-0.89,4.86c-0.59,1.29-1.52,2.46-2.77,3.5l4.34,13.8h-9.67l-3.24-11.71h-1.2
			v11.71h-8.78v-32.45h12.12c3.48,0,6.04,0.82,7.66,2.46S617.83,275.75,617.83,279.34z M607.69,283.52
			c0.38-0.52,0.57-1.47,0.57-2.85c0-1.38-0.19-2.33-0.57-2.87c-0.38-0.54-1.01-0.81-1.88-0.81h-1.41v7.32h1.36
			C606.66,284.3,607.31,284.04,607.69,283.52z"/>
		<path class="st1" d="M625.75,272.44c2-2.61,5.29-3.92,9.85-3.92s7.83,1.29,9.8,3.87s2.95,6.77,2.95,12.57
			c0,5.8-1.01,10.1-3.03,12.88c-2.02,2.79-5.3,4.18-9.83,4.18s-7.79-1.38-9.77-4.13c-1.99-2.75-2.98-7.03-2.98-12.83
			C622.74,279.26,623.74,275.05,625.75,272.44z M638.6,278.48c-0.5-1.13-1.53-1.7-3.08-1.7c-1.55,0-2.55,0.57-3,1.7
			c-0.45,1.13-0.68,3.28-0.68,6.46v1.25c0,3.38,0.25,5.6,0.76,6.66c0.5,1.06,1.53,1.59,3.08,1.59c1.55,0,2.55-0.5,3.01-1.52
			c0.45-1.01,0.68-3.1,0.68-6.27v-1.67C639.36,281.78,639.11,279.61,638.6,278.48z"/>
		<path class="st1" d="M677.93,301.5h-8.57l-6.74-15.1h-0.42v15.1h-7.94v-32.45h8.83l6.43,15.57h0.42v-15.57h8V301.5z"/>
		<path class="st1" d="M694.29,301.5h-8.88v-32.45h8.88V301.5z"/>
		<path class="st1" d="M709.81,285.58c0,3.08,0.3,5.28,0.92,6.58c0.61,1.31,1.61,1.96,3,1.96c1.39,0,3.36-0.33,5.91-0.99l1.36,7.37
			c-2.75,1.01-5.52,1.52-8.31,1.52c-4.18,0-7.22-1.38-9.12-4.15c-1.9-2.77-2.85-6.9-2.85-12.39c0-5.49,0.99-9.68,2.98-12.59
			c1.99-2.91,5.23-4.36,9.72-4.36c2.65,0,5.17,0.56,7.58,1.67l-1.41,8.1c-2.72-0.91-4.62-1.36-5.7-1.36c-1.53,0-2.6,0.67-3.19,2.01
			C710.1,280.29,709.81,282.5,709.81,285.58z"/>
		<path class="st2" d="M492.06,349.8c0,3.09,1.39,4.64,4.16,4.64c2.78,0,4.16-1.57,4.16-4.72v-34.34h18.37v35.46
			c0,6.3-1.97,10.99-5.92,14.08s-9.62,4.64-17,4.64c-15,0-22.49-6.18-22.49-18.54v-35.63h18.72V349.8z"/>
		<path class="st2" d="M522.88,332.46c0-5.67,1.72-10.07,5.15-13.22c3.43-3.15,8.2-4.72,14.3-4.72s12.38,0.57,18.85,1.72
			l-1.97,15.11c-7.16-1.43-11.85-2.15-14.08-2.15s-3.35,0.69-3.35,2.06c0,0.51,0.17,0.87,0.52,1.07c0.34,0.2,0.6,0.36,0.77,0.47
			c0.17,0.12,0.5,0.26,0.99,0.43c0.49,0.17,0.89,0.33,1.2,0.47c0.31,0.14,1.34,0.57,3.09,1.29c1.75,0.72,3.06,1.29,3.95,1.72
			c0.89,0.43,2.1,1.13,3.65,2.1c4.46,2.92,6.7,7.21,6.7,12.88c0,5.67-1.69,10.06-5.07,13.18c-3.38,3.12-8.23,4.68-14.55,4.68
			c-6.33,0-12.52-0.77-18.59-2.32l1.2-14.51c7.67,1.95,12.85,2.92,15.54,2.92c1.77,0,2.66-0.63,2.66-1.89
			c0-0.57-0.21-1.03-0.64-1.37c-0.43-0.34-1.06-0.71-1.89-1.12c-0.83-0.4-2.05-0.93-3.65-1.59c-1.6-0.66-2.95-1.23-4.04-1.72
			c-1.09-0.49-2.38-1.25-3.86-2.28C525.17,342.54,522.88,338.13,522.88,332.46z"/>
		<path class="st2" d="M613.12,368.69H595v-18.8h-9.27v18.8h-18.37v-53.32h18.37v19.92H595v-19.92h18.12V368.69z"/>
		<path class="st2" d="M655.53,368.69h-34v-53.32h35.2l-1.2,14.17H639.9v6.44h13.65v12.36H639.9v7.3h16.83L655.53,368.69z"/>
		<path class="st2" d="M704.81,332.55c0,3.43-0.56,6.17-1.67,8.2c-1.12,2.03-2.85,3.82-5.19,5.37l7.99,22.58h-18.97l-5.32-18.37
			h-1.37v18.37h-17.6v-53.32h22.75c6.64,0,11.53,1.39,14.68,4.16C703.24,322.31,704.81,326.65,704.81,332.55z M684.85,338.68
			c0.54-0.77,0.82-2.13,0.82-4.08c0-1.95-0.29-3.29-0.86-4.04c-0.57-0.74-1.46-1.12-2.66-1.12h-2.23v10.39h2.15
			C683.38,339.84,684.31,339.46,684.85,338.68z"/>
		<path class="st2" d="M714.62,317.77h8.18l-8.38,12.78h-2.84L714.62,317.77z"/>
		<path class="st2" d="M722.39,332.46c0-5.67,1.72-10.07,5.15-13.22c3.43-3.15,8.2-4.72,14.3-4.72s12.38,0.57,18.85,1.72
			l-1.97,15.11c-7.16-1.43-11.85-2.15-14.08-2.15s-3.35,0.69-3.35,2.06c0,0.51,0.17,0.87,0.52,1.07c0.34,0.2,0.6,0.36,0.77,0.47
			c0.17,0.12,0.5,0.26,0.99,0.43c0.49,0.17,0.89,0.33,1.2,0.47c0.31,0.14,1.34,0.57,3.09,1.29c1.75,0.72,3.06,1.29,3.95,1.72
			c0.89,0.43,2.1,1.13,3.65,2.1c4.46,2.92,6.7,7.21,6.7,12.88c0,5.67-1.69,10.06-5.07,13.18c-3.38,3.12-8.23,4.68-14.55,4.68
			c-6.33,0-12.52-0.77-18.59-2.32l1.2-14.51c7.67,1.95,12.85,2.92,15.54,2.92c1.77,0,2.66-0.63,2.66-1.89
			c0-0.57-0.21-1.03-0.64-1.37c-0.43-0.34-1.06-0.71-1.89-1.12c-0.83-0.4-2.05-0.93-3.65-1.59c-1.6-0.66-2.95-1.23-4.04-1.72
			c-1.09-0.49-2.38-1.25-3.86-2.28C724.68,342.54,722.39,338.13,722.39,332.46z"/>
		<g>
			<path class="st1" d="M750.4,301.44h-8.85l-1.01-5.19h-6.25l-1.01,5.19h-8.43l6.04-32.91h13.46L750.4,301.44z M739.53,290.04
				l-1.86-11.77h-0.37l-1.85,11.77H739.53z"/>
		</g>
		<g>
			<path class="st2" d="M460.94,340.77c0,25.85-16.05,38.77-48.14,38.77h-60.28V247.26h59.43c15.9,0,27.65,2.84,35.25,8.52
				c7.59,5.68,11.4,14.41,11.4,26.2c0,11.79-4.97,20.87-14.91,27.26v0.85C455.19,315.35,460.94,325.57,460.94,340.77z
				 M409.92,299.87c1.21-1.7,1.81-4.65,1.81-8.84c0-4.19-0.61-7.21-1.81-9.05c-1.21-1.84-3.16-2.77-5.86-2.77h-6.18v23.22h6.39
				C406.83,302.43,408.72,301.57,409.92,299.87z M411.73,350.67c1.28-1.63,1.92-5.08,1.92-10.33c0-5.25-0.68-8.98-2.02-11.18
				c-1.35-2.2-3.87-3.3-7.56-3.3h-6.18v27.26h6.18C407.9,353.12,410.46,352.3,411.73,350.67z"/>
		</g>
	</g>
</g>
</svg>
