<?xml version="1.0" encoding="utf-8"?>
<!-- Generator: Adobe Illustrator 27.1.0, SVG Export Plug-In . SVG Version: 6.00 Build 0)  -->
<svg version="1.1" id="Capa_1" xmlns="http://www.w3.org/2000/svg" xmlns:xlink="http://www.w3.org/1999/xlink" x="0px" y="0px"
	 viewBox="0 0 1366 768" style="enable-background:new 0 0 1366 768;" xml:space="preserve">
<style type="text/css">
	.st0{fill:#FAD900;}
	.st1{fill:#2B2F73;}
	.st2{fill:#5E2129;}
</style>
<g>
	<g>
		<circle class="st0" cx="666" cy="375" r="244.51"/>
	</g>
	<g>
		<path class="st1" d="M615.58,347.5h-17.56v-32.45h18.08l-0.52,8h-8.62v4.86h7.47v6.9h-7.47v5.38h9.15L615.58,347.5z"/>
		<path class="st1" d="M638.42,347.5h-16.51v-32.45h8.94v25.19h8.1L638.42,347.5z"/>
		<path class="st1" d="M661.16,347.5H643.6v-32.45h18.08l-0.52,8h-8.62v4.86h7.47v6.9h-7.47v5.38h9.15L661.16,347.5z"/>
		<path class="st1" d="M675.11,331.58c0,3.08,0.3,5.28,0.92,6.58c0.61,1.31,1.61,1.96,3,1.96c1.39,0,3.36-0.33,5.91-0.99l1.36,7.37
			c-2.75,1.01-5.52,1.52-8.31,1.52c-4.18,0-7.22-1.38-9.12-4.15c-1.9-2.77-2.85-6.9-2.85-12.39c0-5.49,0.99-9.68,2.98-12.59
			c1.99-2.91,5.23-4.36,9.72-4.36c2.65,0,5.17,0.56,7.58,1.67l-1.41,8.1c-2.72-0.91-4.62-1.36-5.7-1.36c-1.53,0-2.6,0.67-3.19,2.01
			C675.41,326.29,675.11,328.5,675.11,331.58z"/>
		<path class="st1" d="M709.71,322.94h-6.06v24.56h-8.94v-24.56h-6.43l0.52-7.89h21.43L709.71,322.94z"/>
		<path class="st1" d="M736.83,325.34c0,1.95-0.3,3.57-0.89,4.86c-0.59,1.29-1.52,2.46-2.77,3.5l4.34,13.8h-9.67l-3.24-11.71h-1.2
			v11.71h-8.78v-32.45h12.12c3.48,0,6.04,0.82,7.66,2.46S736.83,321.75,736.83,325.34z M726.69,329.52
			c0.38-0.52,0.57-1.47,0.57-2.85c0-1.38-0.19-2.33-0.57-2.87c-0.38-0.54-1.01-0.81-1.88-0.81h-1.41v7.32h1.36
			C725.66,330.3,726.31,330.04,726.69,329.52z"/>
		<path class="st1" d="M744.75,318.44c2-2.61,5.29-3.92,9.85-3.92s7.83,1.29,9.8,3.87s2.95,6.77,2.95,12.57
			c0,5.8-1.01,10.1-3.03,12.88c-2.02,2.79-5.3,4.18-9.83,4.18s-7.79-1.38-9.77-4.13c-1.99-2.75-2.98-7.03-2.98-12.83
			C741.74,325.26,742.74,321.05,744.75,318.44z M757.6,324.48c-0.5-1.13-1.53-1.7-3.08-1.7c-1.55,0-2.55,0.57-3,1.7
			c-0.45,1.13-0.68,3.28-0.68,6.46v1.25c0,3.38,0.25,5.6,0.76,6.66c0.5,1.06,1.53,1.59,3.08,1.59c1.55,0,2.55-0.5,3.01-1.52
			c0.45-1.01,0.68-3.1,0.68-6.27v-1.67C758.36,327.78,758.11,325.61,757.6,324.48z"/>
		<path class="st1" d="M796.93,347.5h-8.57l-6.74-15.1h-0.42v15.1h-7.94v-32.45h8.83l6.43,15.57h0.42v-15.57h8V347.5z"/>
		<path class="st1" d="M813.29,347.5h-8.88v-32.45h8.88V347.5z"/>
		<path class="st1" d="M828.81,331.58c0,3.08,0.3,5.28,0.92,6.58c0.61,1.31,1.61,1.96,3,1.96c1.39,0,3.36-0.33,5.91-0.99l1.36,7.37
			c-2.75,1.01-5.52,1.52-8.31,1.52c-4.18,0-7.22-1.38-9.12-4.15c-1.9-2.77-2.85-6.9-2.85-12.39c0-5.49,0.99-9.68,2.98-12.59
			c1.99-2.91,5.23-4.36,9.72-4.36c2.65,0,5.17,0.56,7.58,1.67l-1.41,8.1c-2.72-0.91-4.62-1.36-5.7-1.36c-1.53,0-2.6,0.67-3.19,2.01
			C829.1,326.29,828.81,328.5,828.81,331.58z"/>
		<path class="st1" d="M846.26,317.34c1.81-1.88,4.29-2.82,7.45-2.82s6.38,0.31,9.69,0.94l-1.04,8.36c-3.45-0.8-5.82-1.2-7.11-1.2
			c-1.64,0-2.46,0.66-2.46,1.99c0,0.52,0.39,1.03,1.18,1.52c0.78,0.49,1.73,1,2.85,1.54s2.23,1.18,3.34,1.93
			c1.12,0.75,2.06,1.82,2.85,3.21c0.78,1.39,1.18,3,1.18,4.81c0,3.31-0.89,5.87-2.67,7.68c-1.78,1.81-4.29,2.72-7.55,2.72
			c-3.26,0-6.44-0.5-9.54-1.52l0.58-7.79c3.73,1.08,6.32,1.62,7.79,1.62c1.46,0,2.19-0.64,2.19-1.93c0-0.66-0.39-1.27-1.18-1.83
			c-0.78-0.56-1.73-1.11-2.85-1.67s-2.24-1.2-3.37-1.93c-1.13-0.73-2.09-1.79-2.88-3.19c-0.78-1.39-1.18-3.05-1.18-4.96
			C843.54,321.72,844.45,319.23,846.26,317.34z"/>
		<path class="st2" d="M571.83,358.84c4.65-6.22,6.98-12.93,6.98-20.14c0-7.05-1.87-13.62-5.6-19.71
			c-3.74-6.09-8.77-10.92-15.09-14.5c-6.32-3.58-13.12-5.37-20.38-5.37h-73.36v124.15h-5.64V293.48h79c8.25,0,15.98,2.04,23.16,6.11
			c7.18,4.08,12.91,9.6,17.17,16.58c4.26,6.98,6.39,14.49,6.39,22.53c0,7.68-2.17,14.42-6.51,20.22c4.34,6.01,6.51,12.12,6.51,18.34
			c0,7-1.25,13.42-3.76,19.24c-2.51,5.83-5.89,10.67-10.15,14.54c-4.26,3.87-9.21,6.87-14.85,9.01c-5.64,2.14-11.63,3.21-17.95,3.21
			h-36.37v-5.64h36.37c5.49,0,10.74-1.03,15.75-3.1c5.02-2.06,9.38-4.87,13.09-8.43c3.71-3.55,6.67-7.84,8.9-12.85
			c2.22-5.02,3.33-10.35,3.33-15.99c0-2.51-0.59-5.53-1.76-9.05C575.87,364.68,574.13,361.56,571.83,358.84z M573.17,338.7
			c0,7.32-2.59,13.93-7.76,19.83c5.17,5.75,7.76,11.99,7.76,18.73c0,6.53-1.63,12.48-4.9,17.83c-3.27,5.36-7.6,9.51-13.01,12.46
			c-5.41,2.95-11.25,4.43-17.52,4.43h-36.37v-5.64h36.37c8.15,0,15.15-2.73,21-8.19c5.85-5.46,8.78-12.42,8.78-20.89
			c0-3.03-0.77-6.39-2.31-10.07c-1.54-3.68-3.67-6.49-6.39-8.43c5.8-5.43,8.7-12.12,8.7-20.06c0-7.63-2.98-14.25-8.94-19.87
			c-5.96-5.62-12.91-8.43-20.85-8.43h-62.08v112.86h-5.64V304.76h67.72c6.22,0,12.06,1.53,17.52,4.58s9.81,7.21,13.05,12.46
			C571.55,327.06,573.17,332.69,573.17,338.7z M501.37,356.49h36.37c5.17,0,9.55-1.55,13.13-4.66c3.58-3.11,5.37-7.48,5.37-13.13
			c0-4.55-1.87-8.52-5.6-11.91c-3.74-3.4-8.03-5.09-12.89-5.09h-50.79v101.58h-5.64V316.05h56.43c6.43,0,12.06,2.26,16.89,6.78
			s7.25,9.81,7.25,15.87c0,4.75-1.11,8.91-3.33,12.46c-2.22,3.55-5.21,6.3-8.97,8.23c8.2,2.93,12.3,8.88,12.3,17.87
			c0,7.11-2.35,12.79-7.05,17.05c-4.7,4.26-10.4,6.39-17.09,6.39h-36.37v-5.64h36.37c5.17,0,9.55-1.55,13.13-4.66
			c3.58-3.11,5.37-7.49,5.37-13.13c0-3.81-1.36-7.18-4.08-10.11c-2.72-2.93-6.71-4.62-11.99-5.09c-0.52,0.05-1.33,0.08-2.43,0.08
			h-36.37V356.49z M498.24,423.27h-5.64v-95.93h45.15c3.55,0,6.58,1.08,9.09,3.25c2.51,2.17,3.76,4.87,3.76,8.11
			c0,4.29-1.18,7.38-3.53,9.29c-2.35,1.91-5.46,2.86-9.33,2.86h-36.37v-5.64h36.37c4.81,0,7.21-2.17,7.21-6.51
			c0-1.78-0.68-3.17-2.04-4.19c-1.36-1.02-3.08-1.53-5.17-1.53h-39.5V423.27z M544.95,378.05c0-2.04-0.61-3.4-1.84-4.08
			c-1.23-0.68-3.02-1.02-5.37-1.02h-36.37v-5.64h36.37c8.57,0,12.85,3.58,12.85,10.74c0,4.02-1.18,6.92-3.53,8.7
			c-2.35,1.78-5.46,2.66-9.33,2.66h-36.37v-5.64h36.37C542.55,383.77,544.95,381.86,544.95,378.05z"/>
		<path class="st2" d="M611.06,395.8c0,3.09,1.39,4.64,4.16,4.64c2.78,0,4.16-1.57,4.16-4.72v-34.34h18.37v35.46
			c0,6.3-1.97,10.99-5.92,14.08s-9.62,4.64-17,4.64c-15,0-22.49-6.18-22.49-18.54v-35.63h18.72V395.8z"/>
		<path class="st2" d="M641.88,378.46c0-5.67,1.72-10.07,5.15-13.22c3.43-3.15,8.2-4.72,14.3-4.72s12.38,0.57,18.85,1.72
			l-1.97,15.11c-7.16-1.43-11.85-2.15-14.08-2.15s-3.35,0.69-3.35,2.06c0,0.51,0.17,0.87,0.52,1.07c0.34,0.2,0.6,0.36,0.77,0.47
			c0.17,0.12,0.5,0.26,0.99,0.43c0.49,0.17,0.89,0.33,1.2,0.47c0.31,0.14,1.34,0.57,3.09,1.29c1.75,0.72,3.06,1.29,3.95,1.72
			c0.89,0.43,2.1,1.13,3.65,2.1c4.46,2.92,6.7,7.21,6.7,12.88c0,5.67-1.69,10.06-5.07,13.18c-3.38,3.12-8.23,4.68-14.55,4.68
			c-6.33,0-12.52-0.77-18.59-2.32l1.2-14.51c7.67,1.95,12.85,2.92,15.54,2.92c1.77,0,2.66-0.63,2.66-1.89
			c0-0.57-0.21-1.03-0.64-1.37c-0.43-0.34-1.06-0.71-1.89-1.12c-0.83-0.4-2.05-0.93-3.65-1.59c-1.6-0.66-2.95-1.23-4.04-1.72
			c-1.09-0.49-2.38-1.25-3.86-2.28C644.17,388.54,641.88,384.13,641.88,378.46z"/>
		<path class="st2" d="M732.12,414.69H714v-18.8h-9.27v18.8h-18.37v-53.32h18.37v19.92H714v-19.92h18.12V414.69z"/>
		<path class="st2" d="M774.53,414.69h-34v-53.32h35.2l-1.2,14.17H758.9v6.44h13.65v12.36H758.9v7.3h16.83L774.53,414.69z"/>
		<path class="st2" d="M823.81,378.55c0,3.43-0.56,6.17-1.67,8.2c-1.12,2.03-2.85,3.82-5.19,5.37l7.99,22.58h-18.97l-5.32-18.37
			h-1.37v18.37h-17.6v-53.32h22.75c6.64,0,11.53,1.39,14.68,4.16C822.24,368.31,823.81,372.65,823.81,378.55z M803.85,384.68
			c0.54-0.77,0.82-2.13,0.82-4.08c0-1.95-0.29-3.29-0.86-4.04c-0.57-0.74-1.46-1.12-2.66-1.12h-2.23v10.39h2.15
			C802.38,385.84,803.31,385.46,803.85,384.68z"/>
		<path class="st2" d="M833.62,363.77h8.18l-8.38,12.78h-2.84L833.62,363.77z"/>
		<path class="st2" d="M841.39,378.46c0-5.67,1.72-10.07,5.15-13.22c3.43-3.15,8.2-4.72,14.3-4.72s12.38,0.57,18.85,1.72
			l-1.97,15.11c-7.16-1.43-11.85-2.15-14.08-2.15s-3.35,0.69-3.35,2.06c0,0.51,0.17,0.87,0.52,1.07c0.34,0.2,0.6,0.36,0.77,0.47
			c0.17,0.12,0.5,0.26,0.99,0.43c0.49,0.17,0.89,0.33,1.2,0.47c0.31,0.14,1.34,0.57,3.09,1.29c1.75,0.72,3.06,1.29,3.95,1.72
			c0.89,0.43,2.1,1.13,3.65,2.1c4.46,2.92,6.7,7.21,6.7,12.88c0,5.67-1.69,10.06-5.07,13.18c-3.38,3.12-8.23,4.68-14.55,4.68
			c-6.33,0-12.52-0.77-18.59-2.32l1.2-14.51c7.67,1.95,12.85,2.92,15.54,2.92c1.77,0,2.66-0.63,2.66-1.89
			c0-0.57-0.21-1.03-0.64-1.37c-0.43-0.34-1.06-0.71-1.89-1.12c-0.83-0.4-2.05-0.93-3.65-1.59c-1.6-0.66-2.95-1.23-4.04-1.72
			c-1.09-0.49-2.38-1.25-3.86-2.28C843.68,388.54,841.39,384.13,841.39,378.46z"/>
	</g>
</g>
</svg>
