<?xml version="1.0" encoding="UTF-8"?>
<svg id="Capa_1" data-name="Capa 1" xmlns="http://www.w3.org/2000/svg" viewBox="0 0 1051 1301.68">
  <defs>
    <style>
      .cls-1, .cls-2, .cls-3 {
        fill: #fff;
      }

      .cls-2, .cls-4, .cls-3, .cls-5, .cls-6 {
        stroke-miterlimit: 10;
      }

      .cls-2, .cls-5 {
        stroke: #2b2f73;
        stroke-width: 4px;
      }

      .cls-7, .cls-8, .cls-9, .cls-10 {
        font-family: MyriadPro-Regular, 'Myriad Pro';
      }

      .cls-7, .cls-8, .cls-10 {
        font-size: 37px;
      }

      .cls-7, .cls-9, .cls-11 {
        fill: #2b2f73;
      }

      .cls-4 {
        stroke-width: 3.52px;
      }

      .cls-4, .cls-3, .cls-6 {
        stroke: #000;
      }

      .cls-4, .cls-5 {
        fill: none;
      }

      .cls-3 {
        stroke-width: .8px;
      }

      .cls-12 {
        letter-spacing: 0em;
      }

      .cls-13 {
        letter-spacing: 0em;
      }

      .cls-9 {
        font-size: 40px;
      }

      .cls-14 {
        letter-spacing: 0em;
      }

      .cls-15 {
        letter-spacing: 0em;
      }

      .cls-16 {
        letter-spacing: 0em;
      }

      .cls-17 {
        letter-spacing: -.03em;
      }

      .cls-18, .cls-6 {
        fill: #5e2129;
      }

      .cls-10, .cls-19 {
        fill: #fad900;
      }

      .cls-20 {
        fill: #434683;
      }

      .cls-21 {
        letter-spacing: 0em;
      }

      .cls-6 {
        stroke-width: .42px;
      }

      .cls-22 {
        letter-spacing: 0em;
      }

      .cls-23 {
        letter-spacing: 0em;
      }
    </style>
  </defs>
  <g>
    <path class="cls-1" d="m266.13,1065.91c-3.2,0-5.8,2.6-5.8,5.8s2.6,5.8,5.8,5.8c2.96,0,5.37-2.22,5.73-5.08h22v-1.44h-22c-.36-2.86-2.77-5.08-5.73-5.08h0Z"/>
    <path class="cls-1" d="m252.14,1070.99v1.44h49.92c-.03-.24-.07-.47-.07-.72s.05-.48.07-.72h-49.92Z"/>
    <path class="cls-1" d="m298.26,1086.9v-20.86c0-9.15-7.7-9.51-7.81-9.52h-34.53v1.44h34.51c.26,0,6.39.3,6.39,8.08v20.86h1.44Z"/>
    <path class="cls-1" d="m276.37,1081.43h1.44v-19.45c-.24.03-.47.07-.72.07s-.48-.04-.72-.07v19.45h0Z"/>
    <polygon class="cls-1" points="277.82 1079.42 277.82 1064 276.37 1064 276.37 1079.42 277.82 1079.42 277.82 1079.42"/>
    <polygon class="cls-1" points="277.81 1077.46 277.81 1065.95 276.38 1065.95 276.38 1077.46 277.81 1077.46 277.81 1077.46"/>
    <polygon class="cls-1" points="285.16 1072.43 285.16 1070.99 269.03 1070.99 269.03 1072.43 285.16 1072.43 285.16 1072.43"/>
    <path class="cls-1" d="m266.09,1070.99v1.44h22c-.03-.24-.07-.47-.07-.72s.04-.48.07-.72h-22Z"/>
    <polygon class="cls-1" points="285.68 1072.43 285.68 1070.99 268.51 1070.99 268.51 1072.43 285.68 1072.43 285.68 1072.43"/>
    <circle class="cls-19" cx="277.1" cy="1071.71" r="107.67"/>
    <g>
      <path class="cls-18" d="m319.92,1042.79v-13.91h-85.66v12.28h18.71c.3-2.43,2.36-4.32,4.87-4.32,2.73,0,4.93,2.21,4.93,4.93s-2.21,4.93-4.93,4.93c-2.51,0-4.56-1.89-4.87-4.32h-18.71v7.92h14.6v1.22h-14.6v16.89h35.7c.05,0,3.53.05,5.83-2.21,1.38-1.35,2.08-3.27,2.08-5.71v-7.28c-2.43-.31-4.33-2.36-4.33-4.87,0-2.73,2.21-4.93,4.94-4.93s4.93,2.21,4.93,4.93c0,2.51-1.89,4.57-4.32,4.87v7.28c0,2.78-.83,5-2.45,6.59-2.51,2.44-6.03,2.55-6.62,2.55h-35.77v10.68h42.46c.31-2.43,2.36-4.32,4.87-4.32,2.72,0,4.94,2.21,4.94,4.94s-2.21,4.93-4.94,4.93c-2.51,0-4.57-1.89-4.87-4.32h-42.46v7.16h29.37c.09,0,6.64.31,6.64,8.09v17.74h19.06v-13.12h1.23v13.12h6.65v-16.54c-2.43-.3-4.32-2.36-4.32-4.87,0-2.73,2.21-4.94,4.93-4.94s4.93,2.21,4.93,4.94c0,2.51-1.89,4.57-4.32,4.87v16.54h6.1v-9.79h1.22v9.79h14.16v-57.78h-18.71c-.3,2.43-2.36,4.32-4.87,4.32-2.72,0-4.93-2.21-4.93-4.93s2.21-4.93,4.93-4.93c2.52,0,4.57,1.89,4.87,4.32h18.71v-11.52h-13.71v-1.22h13.71Z"/>
      <path class="cls-18" d="m248.86,1102.99c-2.52,0-4.57-1.89-4.88-4.32h-9.72v15.87h34.79v-17.74c0-6.61-5.22-6.86-5.44-6.87h-29.35v7.52h9.72c.3-2.43,2.36-4.32,4.88-4.32,2.72,0,4.93,2.21,4.93,4.93s-2.21,4.93-4.93,4.93h0Z"/>
      <path class="cls-11" d="m322.37,1116.99h-90.56v-90.56h90.56v90.56h0Zm23.1-78.32v-3.67h-14.53v-9.09c0-4.44-3.6-8.05-8.04-8.05h-9.09v-14.53h-3.67v14.53h-7.96v-14.53h-3.67v14.53h-7.95v-14.53h-3.67v14.53h-7.96v-14.53h-3.67v14.53h-7.96v-14.53h-3.67v14.53h-7.95v-14.53h-3.67v14.53h-7.96v-14.53h-3.67v14.53h-9.09c-4.44,0-8.04,3.6-8.04,8.05v9.09h-14.53v3.67h14.53v7.95h-14.53v3.67h14.53v7.95h-14.53v3.67h14.53v7.95h-14.53v3.67h14.53v7.96h-14.53v3.67h14.53v7.95h-14.53v3.67h14.53v7.95h-14.53v3.67h14.53v9.09c0,4.44,3.6,8.04,8.04,8.04h9.09v14.53h3.67v-14.53h7.96v14.53h3.67v-14.53h7.95v14.53h3.67v-14.53h7.96v14.53h3.67v-14.53h7.96v14.53h3.67v-14.53h7.95v14.53h3.67v-14.53h7.96v14.53h3.67v-14.53h9.09c4.44,0,8.04-3.6,8.04-8.04v-9.09h14.53v-3.67h-14.53v-7.95h14.53v-3.67h-14.53v-7.95h14.53v-3.67h-14.53v-7.96h14.53v-3.67h-14.53v-7.95h14.53v-3.67h-14.53v-7.95h14.53v-3.67h-14.53v-7.95h14.53Z"/>
      <path class="cls-19" d="m296.34,1051.21c-2.72,0-4.93,2.21-4.93,4.93s2.21,4.93,4.93,4.93c2.52,0,4.57-1.89,4.87-4.32h18.71v-1.22h-18.71c-.3-2.43-2.36-4.32-4.87-4.32h0Z"/>
      <path class="cls-19" d="m243.99,1097.45h-9.72v1.22h9.72c.3,2.43,2.36,4.32,4.88,4.32,2.72,0,4.93-2.21,4.93-4.93s-2.21-4.93-4.93-4.93c-2.52,0-4.57,1.89-4.88,4.32h0Z"/>
      <path class="cls-19" d="m275.8,1066.2c-2.3,2.25-5.78,2.22-5.83,2.21h-35.7v1.22h35.77c.59,0,4.11-.11,6.62-2.55,1.62-1.59,2.45-3.81,2.45-6.59v-7.28c2.43-.31,4.32-2.36,4.32-4.87,0-2.73-2.21-4.93-4.93-4.93s-4.94,2.21-4.94,4.93c0,2.51,1.89,4.57,4.33,4.87v7.28c0,2.44-.7,4.35-2.08,5.71h0Z"/>
      <path class="cls-19" d="m234.26,1080.31v1.22h42.46c-.02-.2-.06-.4-.06-.61s.04-.41.06-.61h-42.46Z"/>
      <path class="cls-19" d="m270.27,1114.54v-17.74c0-7.78-6.55-8.09-6.64-8.09h-29.37v1.22h29.35c.22,0,5.44.26,5.44,6.87v17.74h1.22Z"/>
      <path class="cls-19" d="m297.21,1114.54h1.23v-16.54c-.2.03-.4.06-.61.06s-.41-.04-.61-.06v16.54h0Z"/>
      <polygon class="cls-19" points="290.55 1114.54 290.55 1101.42 289.33 1101.42 289.33 1114.54 290.55 1114.54 290.55 1114.54"/>
      <polygon class="cls-19" points="305.76 1114.54 305.76 1104.75 304.54 1104.75 304.54 1114.54 305.76 1114.54 305.76 1114.54"/>
      <polygon class="cls-19" points="319.92 1044.01 319.92 1042.79 306.21 1042.79 306.21 1044.01 319.92 1044.01 319.92 1044.01"/>
      <path class="cls-19" d="m234.26,1041.15v1.22h18.71c-.03-.2-.06-.4-.06-.61s.04-.41.06-.61h-18.71Z"/>
      <polygon class="cls-19" points="248.86 1051.52 248.86 1050.29 234.26 1050.29 234.26 1051.52 248.86 1051.52 248.86 1051.52"/>
      <path class="cls-19" d="m234.26,1098.67v-69.79h85.66v85.66h-85.66v-15.87h0Zm88.11,18.32v-90.56h-90.56v90.56h90.56Z"/>
    </g>
  </g>
  <circle class="cls-1" cx="999.5" cy="80.68" r="51.5"/>
  <g>
    <rect class="cls-3" x="59" y="511.18" width="456" height="93.5"/>
    <text class="cls-8" transform="translate(104.15 579.72)"><tspan class="cls-17" x="0" y="0">F</tspan><tspan class="cls-22" x="16.72" y="0">ull Name</tspan></text>
  </g>
  <g>
    <rect class="cls-3" x="60.5" y="646.68" width="456" height="93.5"/>
    <text class="cls-8" transform="translate(106.92 708.41)"><tspan x="0" y="0">Email</tspan></text>
  </g>
  <g>
    <rect class="cls-6" x="94" y="799.51" width="377.5" height="77.17" rx="38.59" ry="38.59"/>
    <text class="cls-10" transform="translate(158.62 844.19) rotate(-.05) scale(1.14 1)"><tspan x="0" y="0">Upd</tspan><tspan class="cls-14" x="65.86" y="0">a</tspan><tspan class="cls-23" x="83.54" y="0">t</tspan><tspan class="cls-12" x="95.57" y="0">e p</tspan><tspan class="cls-21" x="143" y="0">r</tspan><tspan x="154.73" y="0">ofile</tspan></text>
  </g>
  <g>
    <g>
      <g>
        <polyline class="cls-2" points="158.5 1292.8 119 1293.18 119 1217.18"/>
        <line class="cls-5" x1="119.37" y1="1217.56" x2="157.75" y2="1217.56"/>
      </g>
      <polygon class="cls-20" points="209.5 1253.68 187.23 1276.61 182.68 1272.19 197.4 1257.03 179.63 1257.29 141.55 1257.85 141.45 1251.51 179.53 1250.95 197.31 1250.69 182.15 1235.97 186.57 1231.42 209.5 1253.68"/>
    </g>
    <text class="cls-9" transform="translate(240.17 1268.67)"><tspan x="0" y="0">Si</tspan><tspan class="cls-15" x="29.08" y="0">g</tspan><tspan x="51.2" y="0">n </tspan><tspan class="cls-16" x="81.88" y="0">O</tspan><tspan x="109.56" y="0">ut</tspan></text>
  </g>
  <g>
    <line class="cls-4" x1="1.17" y1="1.76" x2="56.61" y2="1.76"/>
    <line class="cls-4" y1="35.08" x2="55.44" y2="35.08"/>
    <line class="cls-4" x1="1.56" y1="16.18" x2="57" y2="16.18"/>
  </g>
  <g>
    <rect class="cls-19" x="128.12" y="75.27" width="314" height="291" rx="65.65" ry="65.65"/>
    <circle class="cls-1" cx="288.62" cy="159.77" r="51.5"/>
    <circle class="cls-1" cx="293.62" cy="348.77" r="117.5"/>
    <text class="cls-7" transform="translate(204.81 427.89)"><tspan class="cls-13" x="0" y="0">U</tspan><tspan x="23.72" y="0">ser id: null</tspan></text>
  </g>
</svg>